#N canvas 226 -13 1920 997 12;
#X obj 290 42 tgl 19 0 empty empty empty 0 -10 0 12 #fcfcfc #000000 #000000 0 1;
#X obj 70 121 metro 120;
#X msg 70 170 100;
#X obj 70 269 spigot;
#X obj 109 219 tgl 19 0 empty empty empty 0 -10 0 12 #fcfcfc #000000 #000000 0 1;
#X msg 70 318 60;
#X obj 70 367 makenote 80 60;
#X obj 70 416 noteout 1;
#X msg 202 170 100;
#X obj 202 269 spigot;
#X obj 241 219 tgl 19 0 empty empty empty 0 -10 0 12 #fcfcfc #000000 #000000 0 1;
#X obj 202 416 noteout 1;
#X msg 334 170 100;
#X obj 334 269 spigot;
#X obj 373 219 tgl 19 0 empty empty empty 0 -10 0 12 #fcfcfc #000000 #000000 0 1;
#X obj 334 416 noteout 1;
#X msg 466 170 100;
#X obj 466 269 spigot;
#X obj 505 219 tgl 19 0 empty empty empty 0 -10 0 12 #fcfcfc #000000 #000000 0 1;
#X obj 466 416 noteout 1;
#X obj 202 121 metro 240;
#X obj 334 121 metro 480;
#X obj 466 121 metro 960;
#X obj 202 367 makenote 80 120;
#X obj 334 367 makenote 80 240;
#X obj 466 367 makenote 80 480;
#X msg 202 318 65;
#X msg 334 318 70;
#X msg 466 318 55;
#X connect 0 0 1 0;
#X connect 0 0 20 0;
#X connect 0 0 21 0;
#X connect 0 0 22 0;
#X connect 1 0 2 0;
#X connect 2 0 3 0;
#X connect 3 0 5 0;
#X connect 4 0 3 1;
#X connect 5 0 6 0;
#X connect 6 0 7 0;
#X connect 6 1 7 1;
#X connect 8 0 9 0;
#X connect 9 0 26 0;
#X connect 10 0 9 1;
#X connect 12 0 13 0;
#X connect 13 0 27 0;
#X connect 14 0 13 1;
#X connect 16 0 17 0;
#X connect 17 0 28 0;
#X connect 18 0 17 1;
#X connect 20 0 8 0;
#X connect 21 0 12 0;
#X connect 22 0 16 0;
#X connect 23 0 11 0;
#X connect 23 1 11 1;
#X connect 24 0 15 0;
#X connect 24 1 15 1;
#X connect 25 0 19 0;
#X connect 25 1 19 1;
#X connect 26 0 23 0;
#X connect 27 0 24 0;
#X connect 28 0 25 0;
