#N canvas 2423 54 1278 673 12;
#X obj 392 24 tgl 19 0 empty empty empty 0 -10 0 12 #fcfcfc #000000 #000000 0 1;
#X msg 172 152 100;
#X obj 172 251 spigot;
#X obj 211 201 tgl 19 0 empty empty empty 0 -10 0 12 #fcfcfc #000000 #000000 0 1;
#X msg 172 300 60;
#X obj 172 398 noteout 1;
#X msg 304 152 100;
#X obj 304 251 spigot;
#X obj 343 201 tgl 19 0 empty empty empty 0 -10 0 12 #fcfcfc #000000 #000000 0 1;
#X obj 304 398 noteout 1;
#X msg 436 152 100;
#X obj 436 251 spigot;
#X obj 475 201 tgl 19 0 empty empty empty 0 -10 0 12 #fcfcfc #000000 #000000 0 1;
#X obj 436 398 noteout 1;
#X msg 568 152 100;
#X obj 568 251 spigot;
#X obj 607 201 tgl 19 0 empty empty empty 0 -10 0 12 #fcfcfc #000000 #000000 0 1;
#X obj 568 398 noteout 1;
#X msg 304 300 65;
#X msg 436 300 70;
#X msg 568 300 55;
#X obj 172 103 metro 200;
#X obj 304 103 metro 400;
#X obj 436 103 metro 800;
#X obj 568 103 metro 1600;
#X obj 172 349 makenote 80 100;
#X obj 304 349 makenote 80 200;
#X obj 436 349 makenote 80 400;
#X obj 568 349 makenote 80 800;
#X obj 670 579 netsend -u -b;
#X msg 670 515 connect localhost 3434;
#X msg 754 540 disconnect;
#X floatatom 670 632 5 0 0 0 - - - 0;
#X obj 149 429 oscformat /note1;
#X obj 282 430 oscformat /note2;
#X obj 417 431 oscformat /note3;
#X obj 553 431 oscformat /note4;
#X connect 0 0 21 0;
#X connect 0 0 22 0;
#X connect 0 0 23 0;
#X connect 0 0 24 0;
#X connect 1 0 2 0;
#X connect 2 0 4 0;
#X connect 2 0 33 0;
#X connect 3 0 2 1;
#X connect 4 0 25 0;
#X connect 6 0 7 0;
#X connect 7 0 18 0;
#X connect 7 0 34 0;
#X connect 8 0 7 1;
#X connect 10 0 11 0;
#X connect 11 0 19 0;
#X connect 11 0 35 0;
#X connect 12 0 11 1;
#X connect 14 0 15 0;
#X connect 15 0 20 0;
#X connect 15 0 36 0;
#X connect 16 0 15 1;
#X connect 18 0 26 0;
#X connect 19 0 27 0;
#X connect 20 0 28 0;
#X connect 21 0 1 0;
#X connect 22 0 6 0;
#X connect 23 0 10 0;
#X connect 24 0 14 0;
#X connect 25 0 5 0;
#X connect 25 1 5 1;
#X connect 26 0 9 0;
#X connect 26 1 9 1;
#X connect 27 0 13 0;
#X connect 27 1 13 1;
#X connect 28 0 17 0;
#X connect 28 1 17 1;
#X connect 29 0 32 0;
#X connect 30 0 29 0;
#X connect 31 0 29 0;
#X connect 33 0 29 0;
#X connect 34 0 29 0;
#X connect 35 0 29 0;
#X connect 36 0 29 0;
