#N canvas -55 -14 1920 997 12;
#X obj 290 42 tgl 19 0 empty empty empty 0 -10 0 12 #fcfcfc #000000 #000000 0 1;
#X msg 70 170 100;
#X obj 70 269 spigot;
#X obj 109 219 tgl 19 0 empty empty empty 0 -10 0 12 #fcfcfc #000000 #000000 0 1;
#X msg 70 318 60;
#X obj 70 416 noteout 1;
#X msg 202 170 100;
#X obj 202 269 spigot;
#X obj 241 219 tgl 19 0 empty empty empty 0 -10 0 12 #fcfcfc #000000 #000000 0 1;
#X obj 202 416 noteout 1;
#X msg 334 170 100;
#X obj 334 269 spigot;
#X obj 373 219 tgl 19 0 empty empty empty 0 -10 0 12 #fcfcfc #000000 #000000 0 1;
#X obj 334 416 noteout 1;
#X msg 466 170 100;
#X obj 466 269 spigot;
#X obj 505 219 tgl 19 0 empty empty empty 0 -10 0 12 #fcfcfc #000000 #000000 0 1;
#X obj 466 416 noteout 1;
#X msg 202 318 65;
#X msg 334 318 70;
#X msg 466 318 55;
#X obj 70 367 makenote 80 90;
#X obj 70 121 metro 180;
#X obj 202 121 metro 360;
#X obj 334 121 metro 720;
#X obj 466 121 metro 1440;
#X obj 202 367 makenote 80 180;
#X obj 334 367 makenote 80 360;
#X obj 466 367 makenote 80 720;
#X connect 0 0 22 0;
#X connect 0 0 23 0;
#X connect 0 0 24 0;
#X connect 0 0 25 0;
#X connect 1 0 2 0;
#X connect 2 0 4 0;
#X connect 3 0 2 1;
#X connect 4 0 21 0;
#X connect 6 0 7 0;
#X connect 7 0 18 0;
#X connect 8 0 7 1;
#X connect 10 0 11 0;
#X connect 11 0 19 0;
#X connect 12 0 11 1;
#X connect 14 0 15 0;
#X connect 15 0 20 0;
#X connect 16 0 15 1;
#X connect 18 0 26 0;
#X connect 19 0 27 0;
#X connect 20 0 28 0;
#X connect 21 0 5 0;
#X connect 21 1 5 1;
#X connect 22 0 1 0;
#X connect 23 0 6 0;
#X connect 24 0 10 0;
#X connect 25 0 14 0;
#X connect 26 0 9 0;
#X connect 26 1 9 1;
#X connect 27 0 13 0;
#X connect 27 1 13 1;
#X connect 28 0 17 0;
#X connect 28 1 17 1;
